<mxfile host="app.diagrams.net" modified="2022-07-01T07:02:39.425Z" agent="5.0 (Windows NT 6.1; Win64; x64) AppleWebKit/537.36 (KHTML, like Gecko) Chrome/103.0.0.0 Safari/537.36" etag="wB-aiV3im9U18QrXULV1" version="20.0.4" type="github">
  <diagram name="Copy of Page-2" id="jN8k3b8OVwbsx_qTgyvn">
    <mxGraphModel dx="1991" dy="960" grid="0" gridSize="10" guides="1" tooltips="1" connect="1" arrows="1" fold="1" page="0" pageScale="1" pageWidth="827" pageHeight="1169" math="0" shadow="0">
      <root>
        <mxCell id="4kYTyxmRW_54p8Q_4_XC-0" />
        <mxCell id="4kYTyxmRW_54p8Q_4_XC-1" parent="4kYTyxmRW_54p8Q_4_XC-0" />
        <mxCell id="4NJS1B0K4fI5r6qoZAFL-16" value="&lt;font style=&quot;font-size: 14px;&quot;&gt;&lt;b style=&quot;font-size: 14px;&quot;&gt;SMP Module&lt;/b&gt;&lt;/font&gt;" style="rounded=1;whiteSpace=wrap;html=1;fontFamily=consola;fontSource=https%3A%2F%2Ffonts.googleapis.com%2Fcss%3Ffamily%3Dconsola;align=left;verticalAlign=top;arcSize=3;fontSize=14;strokeWidth=1;strokeColor=#000000;" parent="4kYTyxmRW_54p8Q_4_XC-1" vertex="1">
          <mxGeometry x="-93" y="90" width="975" height="747" as="geometry" />
        </mxCell>
        <mxCell id="4NJS1B0K4fI5r6qoZAFL-25" value="&lt;span style=&quot;font-size: 14px;&quot;&gt;&lt;b&gt;Pairing Procedure&lt;/b&gt;&lt;/span&gt;" style="rounded=0;whiteSpace=wrap;html=1;glass=0;sketch=0;fontFamily=consola;fontSource=https%3A%2F%2Ffonts.googleapis.com%2Fcss%3Ffamily%3Dconsola;fontSize=12;strokeColor=none;fillColor=#FFCE9F;gradientColor=none;horizontal=1;verticalAlign=top;align=left;" parent="4kYTyxmRW_54p8Q_4_XC-1" vertex="1">
          <mxGeometry x="519" y="108" width="330" height="633" as="geometry" />
        </mxCell>
        <mxCell id="4NJS1B0K4fI5r6qoZAFL-28" value="" style="shape=datastore;whiteSpace=wrap;html=1;rounded=0;glass=0;sketch=0;fontFamily=consola;verticalAlign=bottom;horizontal=0;fontSize=14;fontSource=https%3A%2F%2Ffonts.googleapis.com%2Fcss%3Ffamily%3Dconsola;fillColor=#FFCE9F;align=left;" parent="4kYTyxmRW_54p8Q_4_XC-1" vertex="1">
          <mxGeometry x="-70" y="321" width="211" height="161" as="geometry" />
        </mxCell>
        <mxCell id="4NJS1B0K4fI5r6qoZAFL-31" value="&lt;b style=&quot;font-size: 14px;&quot;&gt;Struct define&lt;/b&gt;" style="text;html=1;strokeColor=none;fillColor=none;align=left;verticalAlign=middle;whiteSpace=wrap;rounded=0;glass=0;sketch=0;fontFamily=consola;fontSize=14;fontSource=https%3A%2F%2Ffonts.googleapis.com%2Fcss%3Ffamily%3Dconsola;" parent="4kYTyxmRW_54p8Q_4_XC-1" vertex="1">
          <mxGeometry x="-16" y="322" width="110" height="25.38" as="geometry" />
        </mxCell>
        <mxCell id="4NJS1B0K4fI5r6qoZAFL-32" value="" style="endArrow=none;dashed=1;html=1;rounded=0;strokeWidth=2;" parent="4kYTyxmRW_54p8Q_4_XC-1" edge="1">
          <mxGeometry width="50" height="50" relative="1" as="geometry">
            <mxPoint x="-88" y="858" as="sourcePoint" />
            <mxPoint x="888" y="858" as="targetPoint" />
          </mxGeometry>
        </mxCell>
        <mxCell id="4NJS1B0K4fI5r6qoZAFL-33" value="&lt;b&gt;&lt;font style=&quot;font-size: 14px;&quot;&gt;Lower Layer(L2CAP)&lt;/font&gt;&lt;/b&gt;" style="text;html=1;align=center;verticalAlign=middle;resizable=0;points=[];autosize=1;strokeColor=none;fillColor=none;" parent="4kYTyxmRW_54p8Q_4_XC-1" vertex="1">
          <mxGeometry x="-93" y="874" width="156" height="29" as="geometry" />
        </mxCell>
        <mxCell id="3c3tjuZdf967_n18R4A1-0" value="" style="group;fontSize=14;fontFamily=consola;fontSource=https%3A%2F%2Ffonts.googleapis.com%2Fcss%3Ffamily%3Dconsola;fillColor=#FFFFFF;align=left;" parent="4kYTyxmRW_54p8Q_4_XC-1" vertex="1" connectable="0">
          <mxGeometry x="-85" y="537" width="277" height="236" as="geometry" />
        </mxCell>
        <mxCell id="3c3tjuZdf967_n18R4A1-1" value="" style="shape=datastore;whiteSpace=wrap;html=1;rounded=0;glass=0;sketch=0;fontFamily=consola;strokeColor=default;fillColor=#FFCE9F;gradientColor=none;verticalAlign=bottom;horizontal=0;fontSize=14;fontSource=https%3A%2F%2Ffonts.googleapis.com%2Fcss%3Ffamily%3Dconsola;align=left;" parent="3c3tjuZdf967_n18R4A1-0" vertex="1">
          <mxGeometry y="-0.014303030303030304" width="275.0696864111498" height="234.584" as="geometry" />
        </mxCell>
        <mxCell id="3c3tjuZdf967_n18R4A1-2" value="&lt;b style=&quot;font-size: 14px;&quot;&gt;Global Data&lt;/b&gt;" style="text;html=1;strokeColor=none;fillColor=none;align=left;verticalAlign=middle;whiteSpace=wrap;rounded=0;glass=0;sketch=0;fontFamily=consola;fontSize=14;fontSource=https%3A%2F%2Ffonts.googleapis.com%2Fcss%3Ffamily%3Dconsola;" parent="3c3tjuZdf967_n18R4A1-0" vertex="1">
          <mxGeometry x="86.86411149825784" y="-0.007607994842054263" width="86.86411149825784" height="54.46153846153846" as="geometry" />
        </mxCell>
        <mxCell id="vR5FNIahUqkv23ubM-fr-20" value="&lt;span style=&quot;font-size: 14px;&quot;&gt;struct bt_smp bt_smp_pool[CONFIG_BT_MAX_CONN]&lt;/span&gt;" style="rounded=1;arcSize=10;whiteSpace=wrap;html=1;align=left;glass=0;sketch=0;fontFamily=consola;fontSource=https%3A%2F%2Ffonts.googleapis.com%2Fcss%3Ffamily%3Dconsola;fontSize=12;strokeColor=default;fillColor=default;gradientColor=none;" parent="3c3tjuZdf967_n18R4A1-0" vertex="1">
          <mxGeometry x="6.7560975609756095" y="61.00000000000001" width="263.4878048780488" height="51.46" as="geometry" />
        </mxCell>
        <mxCell id="_auVtMW2LtFf7F24x0Lz-6" value="&lt;span style=&quot;font-size: 14px;&quot;&gt;bool bondable&lt;/span&gt;" style="rounded=1;arcSize=10;whiteSpace=wrap;html=1;align=left;glass=0;sketch=0;fontFamily=consola;fontSource=https%3A%2F%2Ffonts.googleapis.com%2Fcss%3Ffamily%3Dconsola;fontSize=12;strokeColor=default;fillColor=default;gradientColor=none;" vertex="1" parent="3c3tjuZdf967_n18R4A1-0">
          <mxGeometry x="10.616724738675957" y="118" width="159.25087108013938" height="30" as="geometry" />
        </mxCell>
        <mxCell id="_auVtMW2LtFf7F24x0Lz-8" value="&lt;span style=&quot;font-size: 14px;&quot;&gt;bool oobd_present&lt;/span&gt;" style="rounded=1;arcSize=10;whiteSpace=wrap;html=1;align=left;glass=0;sketch=0;fontFamily=consola;fontSource=https%3A%2F%2Ffonts.googleapis.com%2Fcss%3Ffamily%3Dconsola;fontSize=12;strokeColor=default;fillColor=default;gradientColor=none;" vertex="1" parent="3c3tjuZdf967_n18R4A1-0">
          <mxGeometry x="10.616724738675957" y="154" width="159.25087108013938" height="30" as="geometry" />
        </mxCell>
        <mxCell id="_auVtMW2LtFf7F24x0Lz-9" value="&lt;span style=&quot;font-size: 14px;&quot;&gt;bool sc_supported&lt;/span&gt;" style="rounded=1;arcSize=10;whiteSpace=wrap;html=1;align=left;glass=0;sketch=0;fontFamily=consola;fontSource=https%3A%2F%2Ffonts.googleapis.com%2Fcss%3Ffamily%3Dconsola;fontSize=12;strokeColor=default;fillColor=default;gradientColor=none;" vertex="1" parent="3c3tjuZdf967_n18R4A1-0">
          <mxGeometry x="10.616724738675957" y="188" width="159.25087108013938" height="30" as="geometry" />
        </mxCell>
        <mxCell id="vR5FNIahUqkv23ubM-fr-10" value="&lt;span style=&quot;font-size: 14px;&quot;&gt;struct bt_smp&lt;/span&gt;" style="rounded=1;arcSize=10;whiteSpace=wrap;html=1;align=left;glass=0;sketch=0;fontFamily=consola;fontSource=https%3A%2F%2Ffonts.googleapis.com%2Fcss%3Ffamily%3Dconsola;fontSize=12;strokeColor=default;fillColor=default;gradientColor=none;" parent="4kYTyxmRW_54p8Q_4_XC-1" vertex="1">
          <mxGeometry x="-60" y="389" width="165" height="30" as="geometry" />
        </mxCell>
        <mxCell id="_auVtMW2LtFf7F24x0Lz-39" style="edgeStyle=orthogonalEdgeStyle;rounded=0;orthogonalLoop=1;jettySize=auto;html=1;exitX=0;exitY=0;exitDx=0;exitDy=0;entryX=0;entryY=0.5;entryDx=0;entryDy=0;fontFamily=consola;fontSource=https%3A%2F%2Ffonts.googleapis.com%2Fcss%3Ffamily%3Dconsola;fontSize=14;strokeColor=#000000;dashed=1;strokeWidth=2;" edge="1" parent="4kYTyxmRW_54p8Q_4_XC-1" source="MRIMjr-5zxbm9GBbi7Wh-1" target="MRIMjr-5zxbm9GBbi7Wh-3">
          <mxGeometry relative="1" as="geometry">
            <Array as="points">
              <mxPoint x="188" y="326" />
              <mxPoint x="188" y="199" />
            </Array>
          </mxGeometry>
        </mxCell>
        <mxCell id="MRIMjr-5zxbm9GBbi7Wh-1" value="&lt;span style=&quot;font-size: 14px;&quot;&gt;&lt;b&gt;SMP PDU&lt;br&gt;&lt;/b&gt;&lt;/span&gt;" style="rounded=0;whiteSpace=wrap;html=1;glass=0;sketch=0;fontFamily=consola;fontSource=https%3A%2F%2Ffonts.googleapis.com%2Fcss%3Ffamily%3Dconsola;fontSize=12;strokeColor=none;fillColor=#FFCE9F;gradientColor=none;horizontal=1;verticalAlign=top;align=left;" parent="4kYTyxmRW_54p8Q_4_XC-1" vertex="1">
          <mxGeometry x="208" y="326" width="259" height="426" as="geometry" />
        </mxCell>
        <mxCell id="MRIMjr-5zxbm9GBbi7Wh-3" value="&lt;span style=&quot;font-size: 14px;&quot;&gt;&lt;b&gt;Crypto Toolbox&lt;br&gt;&lt;/b&gt;&lt;/span&gt;" style="rounded=0;whiteSpace=wrap;html=1;glass=0;sketch=0;fontFamily=consola;fontSource=https%3A%2F%2Ffonts.googleapis.com%2Fcss%3Ffamily%3Dconsola;fontSize=12;strokeColor=none;fillColor=#FFCE9F;gradientColor=none;horizontal=1;verticalAlign=top;align=left;" parent="4kYTyxmRW_54p8Q_4_XC-1" vertex="1">
          <mxGeometry x="208" y="108" width="196" height="182" as="geometry" />
        </mxCell>
        <mxCell id="MRIMjr-5zxbm9GBbi7Wh-4" value="" style="endArrow=none;dashed=1;html=1;rounded=0;strokeWidth=2;" parent="4kYTyxmRW_54p8Q_4_XC-1" edge="1">
          <mxGeometry width="50" height="50" relative="1" as="geometry">
            <mxPoint x="-87" y="959" as="sourcePoint" />
            <mxPoint x="889" y="959" as="targetPoint" />
          </mxGeometry>
        </mxCell>
        <mxCell id="MRIMjr-5zxbm9GBbi7Wh-5" value="&lt;b&gt;&lt;font style=&quot;font-size: 14px;&quot;&gt;HCI Layer&lt;/font&gt;&lt;/b&gt;" style="text;html=1;align=center;verticalAlign=middle;resizable=0;points=[];autosize=1;strokeColor=none;fillColor=none;" parent="4kYTyxmRW_54p8Q_4_XC-1" vertex="1">
          <mxGeometry x="-89" y="977" width="83" height="29" as="geometry" />
        </mxCell>
        <mxCell id="MRIMjr-5zxbm9GBbi7Wh-10" value="" style="edgeStyle=orthogonalEdgeStyle;rounded=0;orthogonalLoop=1;jettySize=auto;html=1;fontFamily=consola;fontSource=https%3A%2F%2Ffonts.googleapis.com%2Fcss%3Ffamily%3Dconsola;" parent="4kYTyxmRW_54p8Q_4_XC-1" source="MRIMjr-5zxbm9GBbi7Wh-6" target="MRIMjr-5zxbm9GBbi7Wh-9" edge="1">
          <mxGeometry relative="1" as="geometry" />
        </mxCell>
        <mxCell id="MRIMjr-5zxbm9GBbi7Wh-6" value="&lt;span style=&quot;font-size: 14px;&quot;&gt;bt_smp_start_security()&lt;/span&gt;" style="rounded=1;arcSize=50;whiteSpace=wrap;html=1;align=left;glass=0;sketch=0;fontFamily=consola;fontSource=https%3A%2F%2Ffonts.googleapis.com%2Fcss%3Ffamily%3Dconsola;fontSize=12;strokeColor=default;fillColor=default;gradientColor=none;" parent="4kYTyxmRW_54p8Q_4_XC-1" vertex="1">
          <mxGeometry x="526.51" y="136" width="165" height="30" as="geometry" />
        </mxCell>
        <mxCell id="MRIMjr-5zxbm9GBbi7Wh-12" value="False" style="edgeStyle=orthogonalEdgeStyle;rounded=0;orthogonalLoop=1;jettySize=auto;html=1;fontFamily=consola;fontSource=https%3A%2F%2Ffonts.googleapis.com%2Fcss%3Ffamily%3Dconsola;labelBackgroundColor=none;horizontal=1;labelPosition=left;verticalLabelPosition=top;align=right;verticalAlign=bottom;entryX=0.5;entryY=0;entryDx=0;entryDy=0;fontSize=14;" parent="4kYTyxmRW_54p8Q_4_XC-1" source="MRIMjr-5zxbm9GBbi7Wh-9" target="MRIMjr-5zxbm9GBbi7Wh-13" edge="1">
          <mxGeometry relative="1" as="geometry">
            <mxPoint x="609.0000000000005" y="321" as="targetPoint" />
          </mxGeometry>
        </mxCell>
        <mxCell id="MRIMjr-5zxbm9GBbi7Wh-16" value="True" style="edgeStyle=orthogonalEdgeStyle;rounded=0;orthogonalLoop=1;jettySize=auto;html=1;labelBackgroundColor=none;fontFamily=consola;fontSource=https%3A%2F%2Ffonts.googleapis.com%2Fcss%3Ffamily%3Dconsola;fontSize=14;exitX=0.985;exitY=0.506;exitDx=0;exitDy=0;exitPerimeter=0;labelPosition=right;verticalLabelPosition=top;align=left;verticalAlign=bottom;entryX=0.75;entryY=0;entryDx=0;entryDy=0;" parent="4kYTyxmRW_54p8Q_4_XC-1" edge="1" target="MRIMjr-5zxbm9GBbi7Wh-14">
          <mxGeometry relative="1" as="geometry">
            <mxPoint x="702.5399500000001" y="263.00000000000006" as="sourcePoint" />
            <mxPoint x="769.95" y="380.58" as="targetPoint" />
            <Array as="points">
              <mxPoint x="787" y="263" />
            </Array>
          </mxGeometry>
        </mxCell>
        <mxCell id="MRIMjr-5zxbm9GBbi7Wh-9" value="&lt;font style=&quot;font-size: 14px;&quot;&gt;是否已有绑定信息？&lt;br&gt;smp_dhkey_check()&lt;/font&gt;" style="html=1;whiteSpace=wrap;aspect=fixed;shape=isoRectangle;glass=0;fontFamily=consola;fontSource=https%3A%2F%2Ffonts.googleapis.com%2Fcss%3Ffamily%3Dconsola;" parent="4kYTyxmRW_54p8Q_4_XC-1" vertex="1">
          <mxGeometry x="513.17" y="206" width="191.68" height="115" as="geometry" />
        </mxCell>
        <mxCell id="MRIMjr-5zxbm9GBbi7Wh-22" style="edgeStyle=orthogonalEdgeStyle;rounded=0;orthogonalLoop=1;jettySize=auto;html=1;exitX=0.5;exitY=1;exitDx=0;exitDy=0;entryX=0.5;entryY=0;entryDx=0;entryDy=0;labelBackgroundColor=none;fontFamily=consola;fontSource=https%3A%2F%2Ffonts.googleapis.com%2Fcss%3Ffamily%3Dconsola;fontSize=14;" parent="4kYTyxmRW_54p8Q_4_XC-1" source="MRIMjr-5zxbm9GBbi7Wh-13" target="MRIMjr-5zxbm9GBbi7Wh-21" edge="1">
          <mxGeometry relative="1" as="geometry" />
        </mxCell>
        <mxCell id="MRIMjr-5zxbm9GBbi7Wh-13" value="&lt;font style=&quot;font-size: 14px;&quot;&gt;Master:&lt;br&gt;smp_send_pairing_req()&lt;br&gt;Slave:&lt;br&gt;smp_send_security_req()&lt;/font&gt;" style="rounded=1;arcSize=10;whiteSpace=wrap;html=1;align=left;glass=0;sketch=0;fontFamily=consola;fontSource=https%3A%2F%2Ffonts.googleapis.com%2Fcss%3Ffamily%3Dconsola;fontSize=12;strokeColor=default;fillColor=default;gradientColor=none;" parent="4kYTyxmRW_54p8Q_4_XC-1" vertex="1">
          <mxGeometry x="523.88" y="417.38" width="170.24" height="80" as="geometry" />
        </mxCell>
        <mxCell id="_auVtMW2LtFf7F24x0Lz-35" style="edgeStyle=orthogonalEdgeStyle;rounded=0;orthogonalLoop=1;jettySize=auto;html=1;fontFamily=consola;fontSource=https%3A%2F%2Ffonts.googleapis.com%2Fcss%3Ffamily%3Dconsola;fontSize=14;strokeColor=#7EA6E0;" edge="1" parent="4kYTyxmRW_54p8Q_4_XC-1" source="MRIMjr-5zxbm9GBbi7Wh-14">
          <mxGeometry relative="1" as="geometry">
            <mxPoint x="857.5714285714289" y="984.7142857142858" as="targetPoint" />
          </mxGeometry>
        </mxCell>
        <mxCell id="MRIMjr-5zxbm9GBbi7Wh-14" value="&lt;span style=&quot;font-size: 14px;&quot;&gt;bt_conn_le_start_encryption()&lt;/span&gt;" style="rounded=1;arcSize=10;whiteSpace=wrap;html=1;align=left;glass=0;sketch=0;fontFamily=consola;fontSource=https%3A%2F%2Ffonts.googleapis.com%2Fcss%3Ffamily%3Dconsola;fontSize=14;strokeColor=default;fillColor=default;gradientColor=none;" parent="4kYTyxmRW_54p8Q_4_XC-1" vertex="1">
          <mxGeometry x="634" y="368" width="204.49" height="39" as="geometry" />
        </mxCell>
        <mxCell id="MRIMjr-5zxbm9GBbi7Wh-25" style="edgeStyle=orthogonalEdgeStyle;rounded=0;orthogonalLoop=1;jettySize=auto;html=1;entryX=1;entryY=0.25;entryDx=0;entryDy=0;labelBackgroundColor=none;fontFamily=consola;fontSource=https%3A%2F%2Ffonts.googleapis.com%2Fcss%3Ffamily%3Dconsola;fontSize=14;exitX=0.473;exitY=0.973;exitDx=0;exitDy=0;exitPerimeter=0;" parent="4kYTyxmRW_54p8Q_4_XC-1" source="MRIMjr-5zxbm9GBbi7Wh-17" target="MRIMjr-5zxbm9GBbi7Wh-24" edge="1">
          <mxGeometry relative="1" as="geometry">
            <Array as="points">
              <mxPoint x="783" y="573" />
              <mxPoint x="780" y="573" />
              <mxPoint x="780" y="637" />
            </Array>
          </mxGeometry>
        </mxCell>
        <mxCell id="MRIMjr-5zxbm9GBbi7Wh-26" value="True" style="edgeLabel;html=1;align=left;verticalAlign=bottom;resizable=0;points=[];fontSize=14;fontFamily=consola;labelBackgroundColor=none;labelPosition=right;verticalLabelPosition=top;" parent="MRIMjr-5zxbm9GBbi7Wh-25" vertex="1" connectable="0">
          <mxGeometry x="-0.2433" y="-2" relative="1" as="geometry">
            <mxPoint x="1" as="offset" />
          </mxGeometry>
        </mxCell>
        <mxCell id="MRIMjr-5zxbm9GBbi7Wh-17" value="&lt;font style=&quot;font-size: 14px;&quot;&gt;异常终止？&lt;/font&gt;" style="html=1;whiteSpace=wrap;aspect=fixed;shape=isoRectangle;glass=0;fontFamily=consola;fontSource=https%3A%2F%2Ffonts.googleapis.com%2Fcss%3Ffamily%3Dconsola;" parent="4kYTyxmRW_54p8Q_4_XC-1" vertex="1">
          <mxGeometry x="728" y="514" width="116.67" height="70" as="geometry" />
        </mxCell>
        <mxCell id="MRIMjr-5zxbm9GBbi7Wh-23" style="edgeStyle=orthogonalEdgeStyle;rounded=0;orthogonalLoop=1;jettySize=auto;html=1;exitX=1;exitY=0.75;exitDx=0;exitDy=0;entryX=0.069;entryY=0.484;entryDx=0;entryDy=0;entryPerimeter=0;labelBackgroundColor=none;fontFamily=consola;fontSource=https%3A%2F%2Ffonts.googleapis.com%2Fcss%3Ffamily%3Dconsola;fontSize=14;" parent="4kYTyxmRW_54p8Q_4_XC-1" source="MRIMjr-5zxbm9GBbi7Wh-21" target="MRIMjr-5zxbm9GBbi7Wh-17" edge="1">
          <mxGeometry relative="1" as="geometry">
            <Array as="points">
              <mxPoint x="689" y="548" />
            </Array>
          </mxGeometry>
        </mxCell>
        <mxCell id="MRIMjr-5zxbm9GBbi7Wh-33" value="False" style="edgeStyle=orthogonalEdgeStyle;rounded=0;orthogonalLoop=1;jettySize=auto;html=1;exitX=0.964;exitY=0.555;exitDx=0;exitDy=0;entryX=1;entryY=0.5;entryDx=0;entryDy=0;labelBackgroundColor=none;fontFamily=consola;fontSource=https%3A%2F%2Ffonts.googleapis.com%2Fcss%3Ffamily%3Dconsola;fontSize=14;exitPerimeter=0;labelPosition=left;verticalLabelPosition=top;align=right;verticalAlign=bottom;" parent="4kYTyxmRW_54p8Q_4_XC-1" source="MRIMjr-5zxbm9GBbi7Wh-17" target="MRIMjr-5zxbm9GBbi7Wh-31" edge="1">
          <mxGeometry relative="1" as="geometry">
            <Array as="points">
              <mxPoint x="841" y="713" />
            </Array>
          </mxGeometry>
        </mxCell>
        <mxCell id="_auVtMW2LtFf7F24x0Lz-21" style="edgeStyle=orthogonalEdgeStyle;rounded=0;orthogonalLoop=1;jettySize=auto;html=1;exitX=0;exitY=0.75;exitDx=0;exitDy=0;entryX=0.987;entryY=0.059;entryDx=0;entryDy=0;entryPerimeter=0;fontFamily=consola;fontSource=https%3A%2F%2Ffonts.googleapis.com%2Fcss%3Ffamily%3Dconsola;fontSize=14;strokeColor=#7EA6E0;" edge="1" parent="4kYTyxmRW_54p8Q_4_XC-1" source="MRIMjr-5zxbm9GBbi7Wh-21" target="_auVtMW2LtFf7F24x0Lz-18">
          <mxGeometry relative="1" as="geometry" />
        </mxCell>
        <mxCell id="MRIMjr-5zxbm9GBbi7Wh-21" value="&lt;span style=&quot;font-size: 14px;&quot;&gt;pairing procedure......&lt;/span&gt;" style="rounded=1;arcSize=10;whiteSpace=wrap;html=1;align=left;glass=0;sketch=0;fontFamily=consola;fontSource=https%3A%2F%2Ffonts.googleapis.com%2Fcss%3Ffamily%3Dconsola;fontSize=12;strokeColor=default;fillColor=#CCFF99;gradientColor=none;" parent="4kYTyxmRW_54p8Q_4_XC-1" vertex="1">
          <mxGeometry x="539.01" y="525" width="149.99" height="57" as="geometry" />
        </mxCell>
        <mxCell id="MRIMjr-5zxbm9GBbi7Wh-32" style="edgeStyle=orthogonalEdgeStyle;rounded=0;orthogonalLoop=1;jettySize=auto;html=1;exitX=0.5;exitY=1;exitDx=0;exitDy=0;labelBackgroundColor=none;fontFamily=consola;fontSource=https%3A%2F%2Ffonts.googleapis.com%2Fcss%3Ffamily%3Dconsola;fontSize=14;" parent="4kYTyxmRW_54p8Q_4_XC-1" source="MRIMjr-5zxbm9GBbi7Wh-24" target="MRIMjr-5zxbm9GBbi7Wh-31" edge="1">
          <mxGeometry relative="1" as="geometry" />
        </mxCell>
        <mxCell id="MRIMjr-5zxbm9GBbi7Wh-24" value="&lt;span style=&quot;font-size: 14px;&quot;&gt;smp_error()&lt;/span&gt;" style="rounded=1;arcSize=10;whiteSpace=wrap;html=1;align=left;glass=0;sketch=0;fontFamily=consola;fontSource=https%3A%2F%2Ffonts.googleapis.com%2Fcss%3Ffamily%3Dconsola;fontSize=12;strokeColor=default;fillColor=default;gradientColor=none;" parent="4kYTyxmRW_54p8Q_4_XC-1" vertex="1">
          <mxGeometry x="582.52" y="629" width="83.99" height="30" as="geometry" />
        </mxCell>
        <mxCell id="MRIMjr-5zxbm9GBbi7Wh-31" value="&lt;span style=&quot;font-size: 14px;&quot;&gt;smp_pairing_complete()&lt;/span&gt;" style="rounded=1;arcSize=50;whiteSpace=wrap;html=1;align=left;glass=0;sketch=0;fontFamily=consola;fontSource=https%3A%2F%2Ffonts.googleapis.com%2Fcss%3Ffamily%3Dconsola;fontSize=12;strokeColor=default;fillColor=default;gradientColor=none;" parent="4kYTyxmRW_54p8Q_4_XC-1" vertex="1">
          <mxGeometry x="539.01" y="698" width="171" height="30" as="geometry" />
        </mxCell>
        <mxCell id="_auVtMW2LtFf7F24x0Lz-10" value="recv handler" style="swimlane;childLayout=stackLayout;horizontal=1;startSize=30;horizontalStack=0;rounded=1;fontSize=14;fontStyle=0;strokeWidth=2;resizeParent=0;resizeLast=1;shadow=0;dashed=0;align=center;fontFamily=consola;fontSource=https%3A%2F%2Ffonts.googleapis.com%2Fcss%3Ffamily%3Dconsola;" vertex="1" parent="4kYTyxmRW_54p8Q_4_XC-1">
          <mxGeometry x="237" y="368" width="217" height="180" as="geometry" />
        </mxCell>
        <mxCell id="_auVtMW2LtFf7F24x0Lz-11" value="smp_security_request()&#xa;smp_pairing_req()&#xa;smp_pairing_rsp()&#xa;smp_pairing_confirm()&#xa;smp_pairing_random()&#xa;smp_public_key()&#xa;smp_dhkey_check()&#xa;............" style="align=left;strokeColor=none;fillColor=none;spacingLeft=4;fontSize=14;verticalAlign=top;resizable=0;rotatable=0;part=1;fontFamily=consola;fontSource=https%3A%2F%2Ffonts.googleapis.com%2Fcss%3Ffamily%3Dconsola;" vertex="1" parent="_auVtMW2LtFf7F24x0Lz-10">
          <mxGeometry y="30" width="217" height="150" as="geometry" />
        </mxCell>
        <mxCell id="_auVtMW2LtFf7F24x0Lz-17" style="edgeStyle=orthogonalEdgeStyle;rounded=0;orthogonalLoop=1;jettySize=auto;html=1;exitX=1;exitY=0;exitDx=0;exitDy=0;entryX=0;entryY=0.25;entryDx=0;entryDy=0;fontFamily=consola;fontSource=https%3A%2F%2Ffonts.googleapis.com%2Fcss%3Ffamily%3Dconsola;fontSize=14;strokeColor=#7EA6E0;" edge="1" parent="4kYTyxmRW_54p8Q_4_XC-1" source="_auVtMW2LtFf7F24x0Lz-11" target="MRIMjr-5zxbm9GBbi7Wh-21">
          <mxGeometry relative="1" as="geometry" />
        </mxCell>
        <mxCell id="_auVtMW2LtFf7F24x0Lz-18" value="send API" style="swimlane;childLayout=stackLayout;horizontal=1;startSize=30;horizontalStack=0;rounded=1;fontSize=14;fontStyle=0;strokeWidth=2;resizeParent=0;resizeLast=1;shadow=0;dashed=0;align=center;fontFamily=consola;fontSource=https%3A%2F%2Ffonts.googleapis.com%2Fcss%3Ffamily%3Dconsola;" vertex="1" parent="4kYTyxmRW_54p8Q_4_XC-1">
          <mxGeometry x="239" y="557" width="217" height="180" as="geometry" />
        </mxCell>
        <mxCell id="_auVtMW2LtFf7F24x0Lz-19" value="smp_send_security_req()&#xa;smp_send_pairing_req()&#xa;send_pairing_rsp()&#xa;sc_send_public_key()&#xa;smp_send_pairing_random()&#xa;smp_send_pairing_confirm()&#xa;sc_smp_send_dhkey_check()&#xa;.............." style="align=left;strokeColor=none;fillColor=none;spacingLeft=4;fontSize=14;verticalAlign=top;resizable=0;rotatable=0;part=1;fontFamily=consola;fontSource=https%3A%2F%2Ffonts.googleapis.com%2Fcss%3Ffamily%3Dconsola;" vertex="1" parent="_auVtMW2LtFf7F24x0Lz-18">
          <mxGeometry y="30" width="217" height="150" as="geometry" />
        </mxCell>
        <mxCell id="_auVtMW2LtFf7F24x0Lz-24" style="edgeStyle=orthogonalEdgeStyle;rounded=0;orthogonalLoop=1;jettySize=auto;html=1;exitX=0.5;exitY=1;exitDx=0;exitDy=0;fontFamily=consola;fontSource=https%3A%2F%2Ffonts.googleapis.com%2Fcss%3Ffamily%3Dconsola;fontSize=14;entryX=0.5;entryY=0;entryDx=0;entryDy=0;strokeColor=#7EA6E0;" edge="1" parent="4kYTyxmRW_54p8Q_4_XC-1" source="_auVtMW2LtFf7F24x0Lz-19">
          <mxGeometry relative="1" as="geometry">
            <mxPoint x="347.5" y="891" as="targetPoint" />
          </mxGeometry>
        </mxCell>
        <mxCell id="_auVtMW2LtFf7F24x0Lz-25" value="" style="endArrow=classic;html=1;rounded=0;fontFamily=consola;fontSource=https%3A%2F%2Ffonts.googleapis.com%2Fcss%3Ffamily%3Dconsola;fontSize=14;entryX=0.009;entryY=0.133;entryDx=0;entryDy=0;entryPerimeter=0;exitX=0.5;exitY=0;exitDx=0;exitDy=0;strokeColor=#7EA6E0;" edge="1" parent="4kYTyxmRW_54p8Q_4_XC-1" source="_auVtMW2LtFf7F24x0Lz-27" target="_auVtMW2LtFf7F24x0Lz-10">
          <mxGeometry width="50" height="50" relative="1" as="geometry">
            <mxPoint x="202" y="786" as="sourcePoint" />
            <mxPoint x="278" y="970" as="targetPoint" />
            <Array as="points">
              <mxPoint x="202" y="392" />
            </Array>
          </mxGeometry>
        </mxCell>
        <mxCell id="_auVtMW2LtFf7F24x0Lz-29" style="edgeStyle=orthogonalEdgeStyle;rounded=0;orthogonalLoop=1;jettySize=auto;html=1;entryX=0.5;entryY=1;entryDx=0;entryDy=0;fontFamily=consola;fontSource=https%3A%2F%2Ffonts.googleapis.com%2Fcss%3Ffamily%3Dconsola;fontSize=14;strokeColor=#7EA6E0;" edge="1" parent="4kYTyxmRW_54p8Q_4_XC-1" source="_auVtMW2LtFf7F24x0Lz-26" target="_auVtMW2LtFf7F24x0Lz-27">
          <mxGeometry relative="1" as="geometry" />
        </mxCell>
        <mxCell id="_auVtMW2LtFf7F24x0Lz-26" value="&lt;span style=&quot;font-size: 14px;&quot;&gt;SDU&lt;/span&gt;" style="rounded=1;arcSize=10;whiteSpace=wrap;html=1;align=left;glass=0;sketch=0;fontFamily=consola;fontSource=https%3A%2F%2Ffonts.googleapis.com%2Fcss%3Ffamily%3Dconsola;fontSize=12;strokeColor=default;fillColor=#CCCCCC;gradientColor=none;" vertex="1" parent="4kYTyxmRW_54p8Q_4_XC-1">
          <mxGeometry x="170" y="896" width="61" height="30" as="geometry" />
        </mxCell>
        <mxCell id="_auVtMW2LtFf7F24x0Lz-27" value="bt_smp_recv()" style="rounded=1;arcSize=10;whiteSpace=wrap;html=1;align=left;glass=0;sketch=0;fontFamily=consola;fontSource=https%3A%2F%2Ffonts.googleapis.com%2Fcss%3Ffamily%3Dconsola;fontSize=14;strokeColor=default;fillColor=default;gradientColor=none;" vertex="1" parent="4kYTyxmRW_54p8Q_4_XC-1">
          <mxGeometry x="150" y="785" width="101" height="30" as="geometry" />
        </mxCell>
        <mxCell id="_auVtMW2LtFf7F24x0Lz-31" value="&lt;span style=&quot;font-size: 14px;&quot;&gt;smp_c1()&lt;/span&gt;" style="rounded=1;arcSize=10;whiteSpace=wrap;html=1;align=left;glass=0;sketch=0;fontFamily=consola;fontSource=https%3A%2F%2Ffonts.googleapis.com%2Fcss%3Ffamily%3Dconsola;fontSize=12;strokeColor=default;fillColor=default;gradientColor=none;" vertex="1" parent="4kYTyxmRW_54p8Q_4_XC-1">
          <mxGeometry x="223" y="142" width="78" height="30" as="geometry" />
        </mxCell>
        <mxCell id="_auVtMW2LtFf7F24x0Lz-32" value="&lt;span style=&quot;font-size: 14px;&quot;&gt;smp_f4()&lt;/span&gt;" style="rounded=1;arcSize=10;whiteSpace=wrap;html=1;align=left;glass=0;sketch=0;fontFamily=consola;fontSource=https%3A%2F%2Ffonts.googleapis.com%2Fcss%3Ffamily%3Dconsola;fontSize=12;strokeColor=default;fillColor=default;gradientColor=none;" vertex="1" parent="4kYTyxmRW_54p8Q_4_XC-1">
          <mxGeometry x="223" y="180" width="78" height="30" as="geometry" />
        </mxCell>
        <mxCell id="_auVtMW2LtFf7F24x0Lz-33" value="&lt;span style=&quot;font-size: 14px;&quot;&gt;smp_f5()&lt;/span&gt;" style="rounded=1;arcSize=10;whiteSpace=wrap;html=1;align=left;glass=0;sketch=0;fontFamily=consola;fontSource=https%3A%2F%2Ffonts.googleapis.com%2Fcss%3Ffamily%3Dconsola;fontSize=12;strokeColor=default;fillColor=default;gradientColor=none;" vertex="1" parent="4kYTyxmRW_54p8Q_4_XC-1">
          <mxGeometry x="223" y="218" width="78" height="30" as="geometry" />
        </mxCell>
        <mxCell id="_auVtMW2LtFf7F24x0Lz-34" value="&lt;span style=&quot;font-size: 14px;&quot;&gt;smp_f6()&lt;/span&gt;" style="rounded=1;arcSize=10;whiteSpace=wrap;html=1;align=left;glass=0;sketch=0;fontFamily=consola;fontSource=https%3A%2F%2Ffonts.googleapis.com%2Fcss%3Ffamily%3Dconsola;fontSize=12;strokeColor=default;fillColor=default;gradientColor=none;" vertex="1" parent="4kYTyxmRW_54p8Q_4_XC-1">
          <mxGeometry x="223" y="255" width="78" height="30" as="geometry" />
        </mxCell>
        <mxCell id="_auVtMW2LtFf7F24x0Lz-36" value="&lt;span style=&quot;font-size: 14px;&quot;&gt;HCI&amp;nbsp; CMD&lt;/span&gt;" style="rounded=1;arcSize=10;whiteSpace=wrap;html=1;align=left;glass=0;sketch=0;fontFamily=consola;fontSource=https%3A%2F%2Ffonts.googleapis.com%2Fcss%3Ffamily%3Dconsola;fontSize=12;strokeColor=default;fillColor=#CCCCCC;gradientColor=none;" vertex="1" parent="4kYTyxmRW_54p8Q_4_XC-1">
          <mxGeometry x="804" y="984" width="83" height="30" as="geometry" />
        </mxCell>
        <mxCell id="_auVtMW2LtFf7F24x0Lz-37" value="&lt;span style=&quot;font-size: 14px;&quot;&gt;SDU&lt;/span&gt;" style="rounded=1;arcSize=10;whiteSpace=wrap;html=1;align=left;glass=0;sketch=0;fontFamily=consola;fontSource=https%3A%2F%2Ffonts.googleapis.com%2Fcss%3Ffamily%3Dconsola;fontSize=12;strokeColor=default;fillColor=#CCCCCC;gradientColor=none;" vertex="1" parent="4kYTyxmRW_54p8Q_4_XC-1">
          <mxGeometry x="317" y="891" width="61" height="30" as="geometry" />
        </mxCell>
        <mxCell id="_auVtMW2LtFf7F24x0Lz-41" style="edgeStyle=orthogonalEdgeStyle;rounded=0;orthogonalLoop=1;jettySize=auto;html=1;exitX=0;exitY=0.5;exitDx=0;exitDy=0;entryX=1.014;entryY=0.096;entryDx=0;entryDy=0;entryPerimeter=0;fontFamily=consola;fontSource=https%3A%2F%2Ffonts.googleapis.com%2Fcss%3Ffamily%3Dconsola;fontSize=14;strokeColor=#7EA6E0;" edge="1" parent="4kYTyxmRW_54p8Q_4_XC-1" source="MRIMjr-5zxbm9GBbi7Wh-24" target="_auVtMW2LtFf7F24x0Lz-19">
          <mxGeometry relative="1" as="geometry">
            <mxPoint x="549.0100000000002" y="577.75" as="sourcePoint" />
            <mxPoint x="463.1790000000001" y="577.6199999999999" as="targetPoint" />
            <Array as="points">
              <mxPoint x="496" y="644" />
              <mxPoint x="496" y="601" />
            </Array>
          </mxGeometry>
        </mxCell>
      </root>
    </mxGraphModel>
  </diagram>
</mxfile>
